<svg width="169" height="40" viewBox="0 0 169 40" fill="none" xmlns="http://www.w3.org/2000/svg">
<path d="M36.2866 11.501L36.2794 6.288L26.3661 0V4.022L32.9045 8.2L32.9097 11.402L29.8718 13.398L27.7995 11.931V9.446L24.4226 7.204V11.727L19.0692 14.915L19.0589 23.335L15.2739 25.403L13.3314 23.926V21.488L15.6315 19.959V16.166L11.492 18.854L8.32737 16.856L5.43685 18.693L9.95348 21.694V23.536L6.69817 25.674L3.37691 23.492V16.23L8.30779 12.991L8.31191 9.875L14.636 13.827L19.9513 10.394L16.7104 8.559L14.5907 9.947L9.97203 6.983L15.1801 4.036L19.6926 6.603V2.775L15.1853 0.211L4.94016 6.008L4.93295 11.223L0 14.465V25.257L4.93295 28.499L4.94016 33.714L14.8535 40V35.981L8.31501 31.803L8.30985 28.601L11.3477 26.605L13.42 28.072V30.557L16.7969 32.798V28.275L22.2266 25.088L22.2874 16.667L25.9456 14.599L27.8881 16.076V18.514L25.588 20.043V23.837L29.7275 21.148L32.8921 23.146L35.7827 21.309L31.265 18.306V16.466L34.5213 14.329L37.8426 16.511V23.772L32.9127 27.012L32.9076 30.127L26.5835 26.173L21.2682 29.584L24.5091 31.416L26.6288 30.055L31.2475 33.019L26.0394 35.966L21.5269 33.399V37.225L26.0342 39.789L36.2794 33.995L36.2866 28.779L41.2195 25.537V14.743L36.2866 11.501Z" fill="#AC6AFF"/>
<path d="M50.3299 27V12.3281H56.448C57.5465 12.3281 58.4659 12.4833 59.2061 12.7937C59.9512 13.1042 60.51 13.5388 60.8825 14.0976C61.2598 14.6564 61.4485 15.3035 61.4485 16.039C61.4485 16.5978 61.3315 17.0969 61.0974 17.5363C60.8634 17.9709 60.541 18.3315 60.1303 18.6181C59.7196 18.9046 59.2444 19.1052 58.7047 19.2199V19.3631C59.2969 19.3918 59.8437 19.5518 60.3452 19.8431C60.8515 20.1345 61.2574 20.5404 61.5631 21.061C61.8688 21.5768 62.0216 22.1882 62.0216 22.895C62.0216 23.6831 61.821 24.3875 61.4198 25.0084C61.0186 25.6245 60.4384 26.1117 59.679 26.4699C58.9196 26.8233 57.9978 27 56.9137 27H50.3299ZM53.8761 24.1416H56.0683C56.8372 24.1416 57.4032 23.9959 57.7662 23.7045C58.1339 23.4132 58.3178 23.0072 58.3178 22.4867C58.3178 22.1094 58.2294 21.7846 58.0527 21.5124C57.876 21.2353 57.6253 21.0228 57.3005 20.8748C56.9757 20.7219 56.5865 20.6455 56.1328 20.6455H53.8761V24.1416ZM53.8761 18.3602H55.839C56.2259 18.3602 56.5698 18.2957 56.8707 18.1667C57.1716 18.0378 57.4056 17.8515 57.5727 17.608C57.7447 17.3644 57.8306 17.0707 57.8306 16.7268C57.8306 16.2348 57.6563 15.848 57.3077 15.5662C56.959 15.2844 56.4886 15.1435 55.8964 15.1435H53.8761V18.3602ZM63.7266 27V15.996H67.1296V18.002H67.2442C67.4448 17.276 67.7719 16.7363 68.2257 16.3829C68.6794 16.0247 69.2071 15.8456 69.8089 15.8456C69.9713 15.8456 70.1385 15.8575 70.3104 15.8814C70.4823 15.9005 70.6423 15.9316 70.7904 15.9746V19.0193C70.6232 18.962 70.4035 18.9166 70.1313 18.8832C69.8638 18.8497 69.625 18.833 69.4149 18.833C68.9994 18.833 68.6245 18.9261 68.2901 19.1124C67.9606 19.2939 67.7003 19.5494 67.5093 19.879C67.323 20.2037 67.2299 20.5858 67.2299 21.0252V27H63.7266ZM74.9061 27.1863C74.204 27.1863 73.5808 27.0693 73.0363 26.8352C72.4966 26.5964 72.0692 26.2382 71.7539 25.7606C71.4435 25.2782 71.2883 24.6741 71.2883 23.9481C71.2883 23.3368 71.3957 22.821 71.6107 22.4007C71.8256 21.9804 72.1217 21.6389 72.499 21.3762C72.8763 21.1136 73.3109 20.9153 73.8029 20.7816C74.2948 20.6431 74.8201 20.55 75.3789 20.5022C76.0046 20.4449 76.5085 20.3852 76.8906 20.3231C77.2726 20.2563 77.5496 20.1631 77.7216 20.0437C77.8983 19.9195 77.9866 19.7452 77.9866 19.5208V19.4849C77.9866 19.1172 77.8601 18.833 77.607 18.6324C77.3538 18.4318 77.0123 18.3315 76.5825 18.3315C76.1192 18.3315 75.7467 18.4318 75.4649 18.6324C75.1831 18.833 75.004 19.11 74.9276 19.4634L71.6966 19.3488C71.7921 18.6802 72.0381 18.0832 72.4345 17.5578C72.8357 17.0277 73.385 16.6122 74.0823 16.3113C74.7843 16.0056 75.6273 15.8528 76.6112 15.8528C77.3132 15.8528 77.9604 15.9363 78.5526 16.1035C79.1448 16.2659 79.6606 16.5047 80.1 16.8199C80.5394 17.1304 80.8785 17.5124 81.1173 17.9662C81.3609 18.4199 81.4827 18.9381 81.4827 19.5208V27H78.1872V25.4669H78.1013C77.9055 25.8394 77.6547 26.1546 77.3491 26.4125C77.0482 26.6705 76.6923 26.8639 76.2816 26.9928C75.8756 27.1218 75.4171 27.1863 74.9061 27.1863ZM75.9879 24.8938C76.3652 24.8938 76.7043 24.8174 77.0052 24.6645C77.3108 24.5117 77.5544 24.3015 77.7359 24.0341C77.9174 23.7619 78.0081 23.4466 78.0081 23.0884V22.0425C77.9078 22.095 77.7861 22.1428 77.6428 22.1858C77.5043 22.2288 77.3514 22.2694 77.1843 22.3076C77.0171 22.3458 76.8452 22.3792 76.6685 22.4079C76.4918 22.4365 76.3222 22.4628 76.1598 22.4867C75.8303 22.5392 75.5485 22.6204 75.3145 22.7302C75.0852 22.8401 74.9085 22.9834 74.7843 23.1601C74.6649 23.332 74.6052 23.5374 74.6052 23.7762C74.6052 24.1392 74.7342 24.4162 74.9921 24.6072C75.2548 24.7983 75.5867 24.8938 75.9879 24.8938ZM83.6247 27V15.996H87.128V27H83.6247ZM85.3799 14.7137C84.888 14.7137 84.4653 14.5513 84.1119 14.2265C83.7585 13.897 83.5818 13.5006 83.5818 13.0373C83.5818 12.5788 83.7585 12.1872 84.1119 11.8624C84.4653 11.5329 84.888 11.3681 85.3799 11.3681C85.8766 11.3681 86.2993 11.5329 86.648 11.8624C87.0014 12.1872 87.1781 12.5788 87.1781 13.0373C87.1781 13.5006 87.0014 13.897 86.648 14.2265C86.2993 14.5513 85.8766 14.7137 85.3799 14.7137ZM92.861 20.7243V27H89.3578V15.996H92.689V18.0163H92.8108C93.0544 17.3429 93.4699 16.8151 94.0574 16.4331C94.6448 16.0462 95.3445 15.8528 96.1564 15.8528C96.9301 15.8528 97.6012 16.0271 98.1695 16.3757C98.7426 16.7196 99.1868 17.202 99.502 17.8229C99.822 18.439 99.9796 19.1602 99.9749 19.9864V27H96.4716V20.6742C96.4764 20.0628 96.3212 19.5852 96.006 19.2414C95.6955 18.8975 95.2633 18.7255 94.7093 18.7255C94.3415 18.7255 94.0168 18.8067 93.735 18.9691C93.458 19.1267 93.2431 19.3536 93.0902 19.6497C92.9422 19.9458 92.8657 20.304 92.861 20.7243ZM120.337 27.1863C119.635 27.1863 119.011 27.0693 118.467 26.8352C117.927 26.5964 117.5 26.2382 117.185 25.7606C116.874 25.2782 116.719 24.6741 116.719 23.9481C116.719 23.3368 116.826 22.821 117.041 22.4007C117.256 21.9804 117.552 21.6389 117.93 21.3762C118.307 21.1136 118.742 20.9153 119.234 20.7816C119.725 20.6431 120.251 20.55 120.81 20.5022C121.435 20.4449 121.939 20.3852 122.321 20.3231C122.703 20.2563 122.98 20.1631 123.152 20.0437C123.329 19.9195 123.417 19.7452 123.417 19.5208V19.4849C123.417 19.1172 123.291 18.833 123.038 18.6324C122.785 18.4318 122.443 18.3315 122.013 18.3315C121.55 18.3315 121.177 18.4318 120.896 18.6324C120.614 18.833 120.435 19.11 120.358 19.4634L117.127 19.3488C117.223 18.6802 117.469 18.0832 117.865 17.5578C118.266 17.0277 118.816 16.6122 119.513 16.3113C120.215 16.0056 121.058 15.8528 122.042 15.8528C122.744 15.8528 123.391 15.9363 123.983 16.1035C124.576 16.2659 125.091 16.5047 125.531 16.8199C125.97 17.1304 126.309 17.5124 126.548 17.9662C126.792 18.4199 126.913 18.9381 126.913 19.5208V27H123.618V25.4669H123.532C123.336 25.8394 123.085 26.1546 122.78 26.4125C122.479 26.6705 122.123 26.8639 121.712 26.9928C121.306 27.1218 120.848 27.1863 120.337 27.1863ZM121.419 24.8938C121.796 24.8938 122.135 24.8174 122.436 24.6645C122.742 24.5117 122.985 24.3015 123.167 24.0341C123.348 23.7619 123.439 23.4466 123.439 23.0884V22.0425C123.339 22.095 123.217 22.1428 123.073 22.1858C122.935 22.2288 122.782 22.2694 122.615 22.3076C122.448 22.3458 122.276 22.3792 122.099 22.4079C121.922 22.4365 121.753 22.4628 121.591 22.4867C121.261 22.5392 120.979 22.6204 120.745 22.7302C120.516 22.8401 120.339 22.9834 120.215 23.1601C120.096 23.332 120.036 23.5374 120.036 23.7762C120.036 24.1392 120.165 24.4162 120.423 24.6072C120.685 24.7983 121.017 24.8938 121.419 24.8938ZM132.559 20.7243V27H129.055V15.996H132.387V18.0163H132.509C132.752 17.3429 133.168 16.8151 133.755 16.4331C134.343 16.0462 135.042 15.8528 135.854 15.8528C136.628 15.8528 137.299 16.0271 137.867 16.3757C138.44 16.7196 138.884 17.202 139.2 17.8229C139.52 18.439 139.677 19.1602 139.673 19.9864V27H136.169V20.6742C136.174 20.0628 136.019 19.5852 135.704 19.2414C135.393 18.8975 134.961 18.7255 134.407 18.7255C134.039 18.7255 133.714 18.8067 133.433 18.9691C133.156 19.1267 132.941 19.3536 132.788 19.6497C132.64 19.9458 132.563 20.304 132.559 20.7243ZM146.978 27.2078C145.817 27.2078 144.822 26.969 143.991 26.4914C143.164 26.0138 142.529 25.3499 142.085 24.4998C141.641 23.6448 141.419 22.6562 141.419 21.5338C141.419 20.4067 141.641 19.4181 142.085 18.5679C142.534 17.713 143.172 17.0468 143.998 16.5692C144.829 16.0916 145.82 15.8528 146.971 15.8528C147.988 15.8528 148.874 16.0366 149.629 16.4044C150.388 16.7722 150.98 17.2927 151.405 17.9662C151.835 18.6348 152.062 19.4205 152.086 20.3231H148.812C148.745 19.7596 148.554 19.3178 148.239 18.9978C147.928 18.6778 147.523 18.5178 147.021 18.5178C146.615 18.5178 146.259 18.6324 145.954 18.8617C145.648 19.0861 145.409 19.4205 145.237 19.8646C145.07 20.304 144.986 20.8485 144.986 21.498C144.986 22.1476 145.07 22.6968 145.237 23.1458C145.409 23.5899 145.648 23.9266 145.954 24.1559C146.259 24.3804 146.615 24.4926 147.021 24.4926C147.346 24.4926 147.632 24.4233 147.881 24.2848C148.134 24.1463 148.342 23.9433 148.504 23.6759C148.666 23.4037 148.769 23.0741 148.812 22.6873H152.086C152.053 23.5947 151.826 24.3875 151.405 25.0657C150.99 25.7439 150.405 26.2717 149.65 26.649C148.9 27.0215 148.01 27.2078 146.978 27.2078ZM159.023 27.2078C157.872 27.2078 156.878 26.9809 156.042 26.5272C155.211 26.0687 154.571 25.4167 154.122 24.5714C153.678 23.7213 153.456 22.7111 153.456 21.541C153.456 20.4043 153.681 19.4109 154.13 18.5608C154.579 17.7059 155.211 17.042 156.028 16.5692C156.845 16.0916 157.807 15.8528 158.915 15.8528C159.698 15.8528 160.415 15.9746 161.064 16.2181C161.714 16.4617 162.275 16.8223 162.748 17.2999C163.221 17.7775 163.588 18.3673 163.851 19.0694C164.114 19.7667 164.245 20.5667 164.245 21.4694V22.3434H154.681V20.3088H160.986C160.981 19.9363 160.892 19.6043 160.72 19.313C160.549 19.0217 160.312 18.7948 160.011 18.6324C159.715 18.4653 159.374 18.3817 158.987 18.3817C158.595 18.3817 158.244 18.47 157.934 18.6467C157.623 18.8187 157.377 19.0551 157.196 19.356C157.014 19.6521 156.919 19.9888 156.909 20.3661V22.4365C156.909 22.8855 156.998 23.2795 157.174 23.6186C157.351 23.9529 157.602 24.2132 157.926 24.3995C158.251 24.5857 158.638 24.6789 159.087 24.6789C159.398 24.6789 159.679 24.6359 159.932 24.5499C160.186 24.4639 160.403 24.3374 160.584 24.1702C160.766 24.003 160.902 23.7977 160.993 23.5541L164.209 23.6472C164.076 24.3684 163.782 24.9965 163.328 25.5314C162.879 26.0615 162.289 26.4746 161.559 26.7708C160.828 27.0621 159.983 27.2078 159.023 27.2078Z" fill="white"/>
<path d="M102.144 27V12.3281H105.69V18.2169H111.471V12.3281H115.01V27H111.471V21.104H105.69V27H102.144Z" fill="url(#paint0_radial_103_8)"/>
<defs>
<radialGradient id="paint0_radial_103_8" cx="0" cy="0" r="1" gradientUnits="userSpaceOnUse" gradientTransform="translate(108.988 20) scale(59.7683 12)">
<stop stop-color="#D96969"/>
<stop offset="1" stop-color="#691E95"/>
</radialGradient>
</defs>
</svg>
